<svg xmlns="http://www.w3.org/2000/svg" xmlns:xlink="http://www.w3.org/1999/xlink" width="138" zoomAndPan="magnify" viewBox="0 0 103.5 30.000001" height="40" preserveAspectRatio="xMidYMid meet" version="1.0"><defs><g/><clipPath id="36a3123930"><path d="M 1.425781 2.699219 L 24.765625 2.699219 L 24.765625 26.035156 L 1.425781 26.035156 Z M 1.425781 2.699219 " clip-rule="nonzero"/></clipPath><clipPath id="37171dc7e2"><path d="M 94 9 L 101.589844 9 L 101.589844 19 L 94 19 Z M 94 9 " clip-rule="nonzero"/></clipPath></defs><g clip-path="url(#36a3123930)"><path fill="#1a4789" d="M 24.765625 22.488281 C 24.765625 24.445312 23.179688 26.035156 21.21875 26.035156 L 4.972656 26.035156 C 3.015625 26.035156 1.429688 24.445312 1.429688 22.488281 L 1.429688 6.242188 C 1.429688 4.285156 3.015625 2.695312 4.972656 2.695312 L 21.21875 2.695312 C 23.179688 2.695312 24.765625 4.285156 24.765625 6.242188 Z M 24.765625 22.488281 " fill-opacity="1" fill-rule="nonzero"/></g><path fill="#ffffff" d="M 16.890625 16.179688 L 17.269531 13.253906 L 14.371094 13.253906 L 14.371094 11.382812 C 14.371094 10.535156 14.609375 9.960938 15.820312 9.960938 L 17.371094 9.957031 L 17.371094 7.339844 C 17.101562 7.304688 16.183594 7.226562 15.113281 7.226562 C 12.878906 7.226562 11.351562 8.589844 11.351562 11.09375 L 11.351562 13.253906 L 8.824219 13.253906 L 8.824219 16.179688 L 11.351562 16.179688 L 11.351562 23.6875 L 14.371094 23.6875 L 14.371094 16.179688 Z M 16.890625 16.179688 " fill-opacity="1" fill-rule="nonzero"/><g fill="#1a4789" fill-opacity="1"><g transform="translate(27.400066, 18.852736)"><g><path d="M 7.171875 -9.71875 L 7.171875 -8.765625 L 2.609375 -8.765625 L 2.609375 -5.234375 L 6.71875 -5.234375 L 6.71875 -4.28125 L 2.609375 -4.28125 L 2.609375 0 L 1.46875 0 L 1.46875 -9.71875 Z M 7.171875 -9.71875 "/></g></g></g><g fill="#1a4789" fill-opacity="1"><g transform="translate(35.100082, 18.852736)"><g><path d="M 8.75 0 L 7.515625 0 L 6.625 -2.671875 L 2.484375 -2.671875 L 1.578125 0 L 0.390625 0 L 3.78125 -9.71875 L 5.359375 -9.71875 Z M 4.46875 -8.546875 L 2.796875 -3.625 L 6.296875 -3.625 L 4.640625 -8.546875 Z M 4.46875 -8.546875 "/></g></g></g><g fill="#1a4789" fill-opacity="1"><g transform="translate(44.228487, 18.852736)"><g><path d="M 5.375 0.140625 C 4.519531 0.140625 3.757812 -0.0507812 3.09375 -0.4375 C 2.425781 -0.832031 1.90625 -1.40625 1.53125 -2.15625 C 1.15625 -2.90625 0.96875 -3.804688 0.96875 -4.859375 C 0.96875 -5.910156 1.15625 -6.8125 1.53125 -7.5625 C 1.90625 -8.3125 2.425781 -8.878906 3.09375 -9.265625 C 3.757812 -9.660156 4.519531 -9.859375 5.375 -9.859375 C 6.28125 -9.859375 7.035156 -9.6875 7.640625 -9.34375 C 8.242188 -9 8.675781 -8.476562 8.9375 -7.78125 L 8.203125 -7.296875 L 8.046875 -7.296875 C 7.773438 -7.859375 7.425781 -8.253906 7 -8.484375 C 6.570312 -8.710938 6.03125 -8.828125 5.375 -8.828125 C 4.757812 -8.828125 4.210938 -8.691406 3.734375 -8.421875 C 3.265625 -8.148438 2.890625 -7.71875 2.609375 -7.125 C 2.328125 -6.53125 2.1875 -5.773438 2.1875 -4.859375 C 2.1875 -3.929688 2.328125 -3.171875 2.609375 -2.578125 C 2.890625 -1.992188 3.265625 -1.566406 3.734375 -1.296875 C 4.210938 -1.023438 4.757812 -0.890625 5.375 -0.890625 C 6.070312 -0.890625 6.644531 -1.046875 7.09375 -1.359375 C 7.539062 -1.679688 7.875 -2.195312 8.09375 -2.90625 L 8.265625 -2.90625 L 9.03125 -2.53125 C 8.789062 -1.664062 8.359375 -1.003906 7.734375 -0.546875 C 7.117188 -0.0859375 6.332031 0.140625 5.375 0.140625 Z M 5.375 0.140625 "/></g></g></g><g fill="#1a4789" fill-opacity="1"><g transform="translate(53.755513, 18.852736)"><g><path d="M 2.609375 -4.578125 L 2.609375 -0.9375 L 7.5625 -0.9375 L 7.5625 0 L 1.46875 0 L 1.46875 -9.71875 L 7.453125 -9.71875 L 7.453125 -8.765625 L 2.609375 -8.765625 L 2.609375 -5.515625 L 6.890625 -5.515625 L 6.890625 -4.578125 Z M 2.609375 -4.578125 "/></g></g></g><g fill="#1a4789" fill-opacity="1"><g transform="translate(61.960448, 18.852736)"><g><path d="M 1.46875 0 L 1.46875 -9.71875 L 5.15625 -9.71875 C 5.75 -9.71875 6.253906 -9.617188 6.671875 -9.421875 C 7.085938 -9.234375 7.398438 -8.960938 7.609375 -8.609375 C 7.816406 -8.265625 7.921875 -7.847656 7.921875 -7.359375 C 7.921875 -6.929688 7.804688 -6.546875 7.578125 -6.203125 C 7.359375 -5.867188 7.035156 -5.609375 6.609375 -5.421875 L 6.609375 -5.28125 C 7.253906 -5.113281 7.742188 -4.820312 8.078125 -4.40625 C 8.410156 -3.988281 8.578125 -3.457031 8.578125 -2.8125 C 8.578125 -1.914062 8.3125 -1.222656 7.78125 -0.734375 C 7.25 -0.242188 6.460938 0 5.421875 0 Z M 5.09375 -5.640625 C 5.632812 -5.640625 6.050781 -5.78125 6.34375 -6.0625 C 6.644531 -6.34375 6.796875 -6.726562 6.796875 -7.21875 C 6.796875 -7.738281 6.648438 -8.125 6.359375 -8.375 C 6.078125 -8.632812 5.65625 -8.765625 5.09375 -8.765625 L 2.609375 -8.765625 L 2.609375 -5.640625 Z M 5.34375 -0.9375 C 6.726562 -0.9375 7.421875 -1.5625 7.421875 -2.8125 C 7.421875 -4.0625 6.726562 -4.6875 5.34375 -4.6875 L 2.609375 -4.6875 L 2.609375 -0.9375 Z M 5.34375 -0.9375 "/></g></g></g><g fill="#1a4789" fill-opacity="1"><g transform="translate(71.308094, 18.852736)"><g><path d="M 5.328125 0.140625 C 4.484375 0.140625 3.734375 -0.0390625 3.078125 -0.40625 C 2.421875 -0.769531 1.90625 -1.320312 1.53125 -2.0625 C 1.15625 -2.8125 0.96875 -3.742188 0.96875 -4.859375 C 0.96875 -5.972656 1.15625 -6.898438 1.53125 -7.640625 C 1.90625 -8.390625 2.421875 -8.945312 3.078125 -9.3125 C 3.734375 -9.675781 4.484375 -9.859375 5.328125 -9.859375 C 6.171875 -9.859375 6.921875 -9.675781 7.578125 -9.3125 C 8.234375 -8.945312 8.75 -8.390625 9.125 -7.640625 C 9.5 -6.898438 9.6875 -5.972656 9.6875 -4.859375 C 9.6875 -3.742188 9.5 -2.8125 9.125 -2.0625 C 8.75 -1.320312 8.234375 -0.769531 7.578125 -0.40625 C 6.921875 -0.0390625 6.171875 0.140625 5.328125 0.140625 Z M 5.328125 -0.921875 C 6.335938 -0.921875 7.113281 -1.234375 7.65625 -1.859375 C 8.195312 -2.492188 8.46875 -3.492188 8.46875 -4.859375 C 8.46875 -6.222656 8.195312 -7.21875 7.65625 -7.84375 C 7.113281 -8.476562 6.335938 -8.796875 5.328125 -8.796875 C 3.234375 -8.796875 2.1875 -7.484375 2.1875 -4.859375 C 2.1875 -2.234375 3.234375 -0.921875 5.328125 -0.921875 Z M 5.328125 -0.921875 "/></g></g></g><g fill="#1a4789" fill-opacity="1"><g transform="translate(81.964544, 18.852736)"><g><path d="M 5.328125 0.140625 C 4.484375 0.140625 3.734375 -0.0390625 3.078125 -0.40625 C 2.421875 -0.769531 1.90625 -1.320312 1.53125 -2.0625 C 1.15625 -2.8125 0.96875 -3.742188 0.96875 -4.859375 C 0.96875 -5.972656 1.15625 -6.898438 1.53125 -7.640625 C 1.90625 -8.390625 2.421875 -8.945312 3.078125 -9.3125 C 3.734375 -9.675781 4.484375 -9.859375 5.328125 -9.859375 C 6.171875 -9.859375 6.921875 -9.675781 7.578125 -9.3125 C 8.234375 -8.945312 8.75 -8.390625 9.125 -7.640625 C 9.5 -6.898438 9.6875 -5.972656 9.6875 -4.859375 C 9.6875 -3.742188 9.5 -2.8125 9.125 -2.0625 C 8.75 -1.320312 8.234375 -0.769531 7.578125 -0.40625 C 6.921875 -0.0390625 6.171875 0.140625 5.328125 0.140625 Z M 5.328125 -0.921875 C 6.335938 -0.921875 7.113281 -1.234375 7.65625 -1.859375 C 8.195312 -2.492188 8.46875 -3.492188 8.46875 -4.859375 C 8.46875 -6.222656 8.195312 -7.21875 7.65625 -7.84375 C 7.113281 -8.476562 6.335938 -8.796875 5.328125 -8.796875 C 3.234375 -8.796875 2.1875 -7.484375 2.1875 -4.859375 C 2.1875 -2.234375 3.234375 -0.921875 5.328125 -0.921875 Z M 5.328125 -0.921875 "/></g></g></g><g clip-path="url(#37171dc7e2)"><g fill="#1a4789" fill-opacity="1"><g transform="translate(92.620994, 18.852736)"><g><path d="M 1.46875 0 L 1.46875 -9.71875 L 2.609375 -9.71875 L 2.609375 -5.46875 L 2.8125 -5.46875 L 6.8125 -9.71875 L 8.046875 -9.71875 L 8.046875 -9.546875 L 3.84375 -5.015625 L 8.390625 -0.171875 L 8.390625 0 L 7.078125 0 L 2.8125 -4.46875 L 2.609375 -4.46875 L 2.609375 0 Z M 1.46875 0 "/></g></g></g></g></svg>