<svg xmlns="http://www.w3.org/2000/svg" xmlns:xlink="http://www.w3.org/1999/xlink" width="138" zoomAndPan="magnify" viewBox="0 0 103.5 30.000001" height="40" preserveAspectRatio="xMidYMid meet" version="1.0"><defs><g/><clipPath id="81658ed0c5"><path d="M 7 20 L 21 20 L 21 25.628906 L 7 25.628906 Z M 7 20 " clip-rule="nonzero"/></clipPath><clipPath id="58c15eafee"><path d="M 10 22.390625 L 17.980469 22.390625 L 17.980469 25.628906 L 10 25.628906 Z M 10 22.390625 " clip-rule="nonzero"/></clipPath><clipPath id="fc692caf2a"><path d="M 15.761719 23.125 C 15.808594 22.972656 15.816406 22.734375 15.347656 22.84375 C 15.347656 22.84375 14.070312 23.027344 14.007812 24.527344 L 13.980469 27.40625 L 13.671875 27.40625 L 13.640625 24.527344 C 13.582031 23.027344 12.300781 22.84375 12.300781 22.84375 C 11.835938 22.734375 11.839844 22.972656 11.886719 23.125 C 11.429688 22.335938 10.199219 22.4375 10.199219 22.4375 C 9.773438 22.59375 10.167969 22.867188 10.167969 22.867188 C 10.839844 23.113281 10.898438 23.847656 10.898438 23.847656 L 10.898438 25.929688 L 10.972656 27.535156 C 11.121094 28.253906 11.5 28.675781 11.867188 28.925781 L 15.789062 28.921875 C 16.265625 28.597656 16.75 27.980469 16.75 26.820312 L 16.75 23.847656 C 16.75 23.847656 16.8125 23.113281 17.480469 22.867188 C 18.152344 22.621094 17.878906 22.59375 17.449219 22.4375 C 17.449219 22.4375 17.398438 22.433594 17.3125 22.433594 C 16.976562 22.433594 16.128906 22.5 15.761719 23.125 M 12.058594 26.085938 L 12.058594 23.820312 C 12.058594 23.597656 12.019531 23.410156 11.953125 23.253906 C 12.394531 23.601562 12.421875 24.46875 12.421875 24.46875 L 12.421875 27.300781 C 11.984375 26.988281 12.058594 26.085938 12.058594 26.085938 M 15.226562 24.46875 C 15.226562 24.46875 15.257812 23.601562 15.699219 23.253906 C 15.632812 23.410156 15.59375 23.597656 15.59375 23.820312 L 15.59375 26.085938 C 15.59375 26.085938 15.667969 26.921875 15.226562 27.269531 Z M 15.226562 24.46875 " clip-rule="nonzero"/></clipPath><clipPath id="d9fb77af6d"><path d="M 1.425781 4 L 26.222656 4 L 26.222656 23 L 1.425781 23 Z M 1.425781 4 " clip-rule="nonzero"/></clipPath></defs><g clip-path="url(#81658ed0c5)"><path fill="#a0dcf2" d="M 20.777344 23.214844 C 20.777344 24.550781 17.707031 25.628906 13.921875 25.628906 C 10.132812 25.628906 7.0625 24.550781 7.0625 23.214844 C 7.0625 21.882812 10.132812 20.800781 13.921875 20.800781 C 17.707031 20.800781 20.777344 21.882812 20.777344 23.214844 " fill-opacity="1" fill-rule="nonzero"/></g><g clip-path="url(#58c15eafee)"><g clip-path="url(#fc692caf2a)"><path fill="#82bde7" d="M 20.777344 23.214844 C 20.777344 24.550781 17.707031 25.628906 13.921875 25.628906 C 10.132812 25.628906 7.0625 24.550781 7.0625 23.214844 C 7.0625 21.882812 10.132812 20.800781 13.921875 20.800781 C 17.707031 20.800781 20.777344 21.882812 20.777344 23.214844 " fill-opacity="1" fill-rule="nonzero"/></g></g><path fill="#a0dcf2" d="M 6.089844 16.113281 L 5.890625 16.808594 C 5.890625 16.808594 5.839844 17.058594 6.074219 17.105469 C 6.320312 17.097656 6.296875 16.867188 6.28125 16.792969 Z M 6.089844 16.113281 " fill-opacity="1" fill-rule="nonzero"/><g clip-path="url(#d9fb77af6d)"><path fill="#292929" d="M 26.023438 13.203125 L 26.039062 13.113281 C 24.027344 12.710938 21.964844 12.707031 20.714844 12.757812 C 20.917969 12.015625 20.980469 11.15625 20.980469 10.203125 C 20.980469 8.835938 20.46875 7.738281 19.640625 6.90625 C 19.785156 6.4375 19.980469 5.390625 19.445312 4.050781 C 19.445312 4.050781 18.507812 3.75 16.386719 5.179688 C 15.554688 4.972656 14.667969 4.867188 13.78125 4.867188 C 12.808594 4.867188 11.820312 4.992188 10.902344 5.246094 C 8.710938 3.742188 7.742188 4.050781 7.742188 4.050781 C 7.113281 5.640625 7.503906 6.816406 7.621094 7.109375 C 6.878906 7.914062 6.425781 8.941406 6.425781 10.203125 C 6.425781 11.15625 6.535156 12.007812 6.796875 12.753906 C 5.539062 12.707031 3.546875 12.722656 1.605469 13.113281 L 1.625 13.203125 C 3.578125 12.8125 5.578125 12.796875 6.828125 12.84375 C 6.886719 13 6.949219 13.148438 7.023438 13.292969 C 5.785156 13.332031 3.671875 13.492188 1.644531 14.066406 L 1.671875 14.15625 C 3.710938 13.574219 5.84375 13.421875 7.070312 13.382812 C 7.808594 14.769531 9.269531 15.667969 11.863281 15.945312 C 11.496094 16.195312 11.117188 16.617188 10.964844 17.335938 C 10.464844 17.574219 8.875 18.164062 7.921875 16.515625 C 7.921875 16.515625 7.390625 15.535156 6.367188 15.457031 C 6.367188 15.457031 5.378906 15.445312 6.300781 16.078125 C 6.300781 16.078125 6.964844 16.394531 7.421875 17.574219 C 7.421875 17.574219 8.015625 19.585938 10.894531 18.941406 L 10.894531 21.023438 C 10.894531 21.023438 10.835938 21.757812 10.164062 22.003906 C 9.492188 22.246094 9.769531 22.277344 10.195312 22.433594 C 10.195312 22.433594 12.054688 22.585938 12.054688 21.050781 L 12.054688 18.785156 C 12.054688 18.785156 11.980469 17.882812 12.417969 17.570312 L 12.417969 21.300781 C 12.417969 21.300781 12.386719 22.191406 11.929688 22.527344 C 11.472656 22.863281 11.625 23.078125 12.296875 22.925781 C 12.296875 22.925781 13.578125 22.742188 13.636719 21.238281 L 13.667969 17.46875 L 13.972656 17.46875 L 14.003906 21.238281 C 14.066406 22.742188 15.34375 22.925781 15.34375 22.925781 C 16.015625 23.078125 15.710938 22.527344 15.710938 22.527344 C 15.253906 22.191406 15.222656 21.300781 15.222656 21.300781 L 15.222656 17.605469 C 15.660156 17.949219 15.589844 18.785156 15.589844 18.785156 L 15.589844 21.054688 C 15.589844 22.589844 17.445312 22.433594 17.445312 22.433594 C 17.871094 22.28125 17.476562 22.007812 17.476562 22.007812 C 16.808594 21.757812 16.746094 21.023438 16.746094 21.023438 L 16.746094 18.050781 C 16.746094 16.890625 16.261719 16.277344 15.785156 15.953125 C 18.550781 15.675781 19.878906 14.777344 20.492188 13.382812 C 21.703125 13.414062 23.882812 13.5625 25.96875 14.15625 L 25.996094 14.066406 C 23.921875 13.480469 21.753906 13.328125 20.53125 13.289062 C 20.589844 13.148438 20.640625 13.003906 20.683594 12.851562 C 21.925781 12.796875 24 12.800781 26.019531 13.207031 " fill-opacity="1" fill-rule="nonzero"/></g><path fill="#f5cdb5" d="M 18.277344 10.136719 C 18.871094 10.679688 19.222656 11.335938 19.222656 12.042969 C 19.222656 15.34375 16.777344 15.433594 13.761719 15.433594 C 10.746094 15.433594 8.300781 14.980469 8.300781 12.046875 C 8.300781 11.34375 8.644531 10.691406 9.234375 10.152344 C 10.214844 9.25 11.875 9.726562 13.761719 9.726562 C 15.636719 9.726562 17.292969 9.246094 18.277344 10.140625 " fill-opacity="1" fill-rule="nonzero"/><path fill="#ffffff" d="M 11.945312 12.214844 C 11.945312 13.121094 11.4375 13.859375 10.808594 13.859375 C 10.183594 13.859375 9.671875 13.121094 9.671875 12.214844 C 9.671875 11.304688 10.183594 10.566406 10.808594 10.566406 C 11.4375 10.566406 11.945312 11.304688 11.945312 12.214844 " fill-opacity="1" fill-rule="nonzero"/><path fill="#b1645a" d="M 11.582031 12.234375 C 11.582031 12.839844 11.238281 13.332031 10.824219 13.332031 C 10.40625 13.332031 10.066406 12.839844 10.066406 12.234375 C 10.066406 11.628906 10.40625 11.136719 10.824219 11.136719 C 11.242188 11.136719 11.582031 11.628906 11.582031 12.234375 " fill-opacity="1" fill-rule="nonzero"/><path fill="#ffffff" d="M 18.039062 12.214844 C 18.039062 13.121094 17.53125 13.859375 16.902344 13.859375 C 16.277344 13.859375 15.769531 13.121094 15.769531 12.214844 C 15.769531 11.304688 16.277344 10.566406 16.902344 10.566406 C 17.53125 10.566406 18.039062 11.304688 18.039062 12.214844 " fill-opacity="1" fill-rule="nonzero"/><path fill="#b1645a" d="M 17.675781 12.234375 C 17.675781 12.839844 17.335938 13.332031 16.917969 13.332031 C 16.503906 13.332031 16.160156 12.839844 16.160156 12.234375 C 16.160156 11.628906 16.503906 11.136719 16.917969 11.136719 C 17.335938 11.136719 17.675781 11.628906 17.675781 12.234375 M 14.0625 13.671875 C 14.0625 13.832031 13.933594 13.960938 13.777344 13.960938 C 13.621094 13.960938 13.492188 13.832031 13.492188 13.671875 C 13.492188 13.515625 13.621094 13.386719 13.777344 13.386719 C 13.933594 13.386719 14.0625 13.515625 14.0625 13.671875 M 13.117188 14.394531 C 13.09375 14.339844 13.113281 14.300781 13.171875 14.277344 C 13.230469 14.257812 13.269531 14.277344 13.289062 14.335938 C 13.359375 14.542969 13.554688 14.683594 13.773438 14.683594 C 13.992188 14.683594 14.1875 14.542969 14.261719 14.335938 C 14.28125 14.277344 14.320312 14.257812 14.378906 14.277344 C 14.4375 14.300781 14.453125 14.339844 14.433594 14.394531 C 14.324219 14.707031 14.101562 14.863281 13.773438 14.863281 C 13.445312 14.863281 13.226562 14.707031 13.117188 14.394531 " fill-opacity="1" fill-rule="nonzero"/><path fill="#c5e6da" d="M 6.816406 15.707031 C 6.816406 15.78125 6.726562 15.84375 6.617188 15.84375 C 6.507812 15.84375 6.417969 15.78125 6.417969 15.707031 C 6.417969 15.628906 6.507812 15.566406 6.617188 15.566406 C 6.726562 15.566406 6.816406 15.628906 6.816406 15.707031 M 7.363281 16.011719 C 7.363281 16.089844 7.277344 16.152344 7.164062 16.152344 C 7.054688 16.152344 6.96875 16.089844 6.96875 16.011719 C 6.96875 15.9375 7.054688 15.875 7.164062 15.875 C 7.277344 15.875 7.363281 15.9375 7.363281 16.011719 M 7.699219 16.410156 C 7.699219 16.484375 7.609375 16.546875 7.5 16.546875 C 7.390625 16.546875 7.304688 16.484375 7.304688 16.410156 C 7.304688 16.332031 7.390625 16.273438 7.5 16.273438 C 7.609375 16.273438 7.699219 16.332031 7.699219 16.410156 M 8.003906 16.871094 C 8.003906 16.945312 7.914062 17.007812 7.804688 17.007812 C 7.695312 17.007812 7.609375 16.945312 7.609375 16.871094 C 7.609375 16.792969 7.695312 16.730469 7.804688 16.730469 C 7.914062 16.730469 8.003906 16.792969 8.003906 16.871094 M 8.339844 17.300781 C 8.339844 17.375 8.25 17.4375 8.140625 17.4375 C 8.03125 17.4375 7.941406 17.378906 7.941406 17.300781 C 7.941406 17.222656 8.03125 17.164062 8.140625 17.164062 C 8.25 17.164062 8.339844 17.222656 8.339844 17.300781 M 8.796875 17.667969 C 8.796875 17.746094 8.707031 17.808594 8.597656 17.808594 C 8.488281 17.808594 8.402344 17.746094 8.402344 17.667969 C 8.402344 17.59375 8.488281 17.53125 8.597656 17.53125 C 8.707031 17.53125 8.796875 17.59375 8.796875 17.667969 " fill-opacity="1" fill-rule="nonzero"/><path fill="#c5e6da" d="M 9.4375 17.914062 C 9.4375 17.988281 9.347656 18.050781 9.238281 18.050781 C 9.128906 18.050781 9.039062 17.988281 9.039062 17.914062 C 9.039062 17.835938 9.128906 17.773438 9.238281 17.773438 C 9.347656 17.773438 9.4375 17.835938 9.4375 17.914062 " fill-opacity="1" fill-rule="nonzero"/><path fill="#c5e6da" d="M 10.074219 17.914062 C 10.074219 17.988281 9.984375 18.050781 9.875 18.050781 C 9.765625 18.050781 9.675781 17.988281 9.675781 17.914062 C 9.675781 17.835938 9.765625 17.773438 9.875 17.773438 C 9.984375 17.773438 10.074219 17.835938 10.074219 17.914062 " fill-opacity="1" fill-rule="nonzero"/><path fill="#c5e6da" d="M 10.71875 17.804688 C 10.71875 17.882812 10.632812 17.945312 10.523438 17.945312 C 10.414062 17.945312 10.324219 17.882812 10.324219 17.804688 C 10.324219 17.730469 10.414062 17.667969 10.523438 17.667969 C 10.632812 17.667969 10.71875 17.730469 10.71875 17.804688 " fill-opacity="1" fill-rule="nonzero"/><g fill="#282828" fill-opacity="1"><g transform="translate(30.245525, 18.962134)"><g><path d="M 5.109375 0.140625 C 4.296875 0.140625 3.578125 -0.046875 2.953125 -0.421875 C 2.328125 -0.796875 1.835938 -1.351562 1.484375 -2.09375 C 1.140625 -2.84375 0.96875 -3.765625 0.96875 -4.859375 C 0.96875 -5.953125 1.15625 -6.867188 1.53125 -7.609375 C 1.90625 -8.359375 2.425781 -8.921875 3.09375 -9.296875 C 3.757812 -9.671875 4.523438 -9.859375 5.390625 -9.859375 C 6.316406 -9.859375 7.078125 -9.6875 7.671875 -9.34375 C 8.273438 -9.007812 8.703125 -8.515625 8.953125 -7.859375 L 8.203125 -7.421875 L 8.046875 -7.421875 C 7.785156 -7.921875 7.441406 -8.28125 7.015625 -8.5 C 6.585938 -8.71875 6.046875 -8.828125 5.390625 -8.828125 C 3.253906 -8.828125 2.1875 -7.503906 2.1875 -4.859375 C 2.1875 -3.484375 2.453125 -2.476562 2.984375 -1.84375 C 3.523438 -1.207031 4.28125 -0.890625 5.25 -0.890625 C 6.132812 -0.890625 6.796875 -1.085938 7.234375 -1.484375 C 7.679688 -1.890625 7.90625 -2.53125 7.90625 -3.40625 L 7.90625 -4.265625 L 5.140625 -4.265625 L 5.140625 -5.171875 L 9.015625 -5.171875 L 9.015625 0 L 7.953125 0 L 7.953125 -1.296875 L 7.8125 -1.328125 C 7.550781 -0.828125 7.191406 -0.457031 6.734375 -0.21875 C 6.273438 0.0195312 5.734375 0.140625 5.109375 0.140625 Z M 5.109375 0.140625 "/></g></g></g><g fill="#282828" fill-opacity="1"><g transform="translate(40.343907, 18.962134)"><g><path d="M 2.609375 0 L 1.46875 0 L 1.46875 -9.71875 L 2.609375 -9.71875 Z M 2.609375 0 "/></g></g></g><g fill="#282828" fill-opacity="1"><g transform="translate(44.429765, 18.962134)"><g><path d="M 7.578125 -9.71875 L 7.578125 -8.75 L 4.53125 -8.75 L 4.53125 0 L 3.40625 0 L 3.40625 -8.75 L 0.359375 -8.75 L 0.359375 -9.71875 Z M 7.578125 -9.71875 "/></g></g></g><g fill="#282828" fill-opacity="1"><g transform="translate(52.362309, 18.962134)"><g><path d="M 7.65625 -5.78125 L 7.65625 -9.71875 L 8.796875 -9.71875 L 8.796875 0 L 7.65625 0 L 7.65625 -4.796875 L 2.609375 -4.796875 L 2.609375 0 L 1.46875 0 L 1.46875 -9.71875 L 2.609375 -9.71875 L 2.609375 -5.78125 Z M 7.65625 -5.78125 "/></g></g></g><g fill="#282828" fill-opacity="1"><g transform="translate(62.633426, 18.962134)"><g><path d="M 5.015625 0.140625 C 3.816406 0.140625 2.910156 -0.160156 2.296875 -0.765625 C 1.691406 -1.367188 1.390625 -2.265625 1.390625 -3.453125 L 1.390625 -9.71875 L 2.53125 -9.71875 L 2.53125 -3.46875 C 2.53125 -2.613281 2.734375 -1.972656 3.140625 -1.546875 C 3.546875 -1.128906 4.171875 -0.921875 5.015625 -0.921875 C 6.671875 -0.921875 7.5 -1.769531 7.5 -3.46875 L 7.5 -9.71875 L 8.625 -9.71875 L 8.625 -3.453125 C 8.625 -2.265625 8.316406 -1.367188 7.703125 -0.765625 C 7.097656 -0.160156 6.203125 0.140625 5.015625 0.140625 Z M 5.015625 0.140625 "/></g></g></g><g fill="#282828" fill-opacity="1"><g transform="translate(72.64544, 18.962134)"><g><path d="M 1.46875 0 L 1.46875 -9.71875 L 5.15625 -9.71875 C 5.75 -9.71875 6.253906 -9.617188 6.671875 -9.421875 C 7.085938 -9.234375 7.398438 -8.960938 7.609375 -8.609375 C 7.816406 -8.265625 7.921875 -7.847656 7.921875 -7.359375 C 7.921875 -6.929688 7.804688 -6.546875 7.578125 -6.203125 C 7.359375 -5.867188 7.035156 -5.609375 6.609375 -5.421875 L 6.609375 -5.28125 C 7.253906 -5.113281 7.742188 -4.820312 8.078125 -4.40625 C 8.410156 -3.988281 8.578125 -3.457031 8.578125 -2.8125 C 8.578125 -1.914062 8.3125 -1.222656 7.78125 -0.734375 C 7.25 -0.242188 6.460938 0 5.421875 0 Z M 5.09375 -5.640625 C 5.632812 -5.640625 6.050781 -5.78125 6.34375 -6.0625 C 6.644531 -6.34375 6.796875 -6.726562 6.796875 -7.21875 C 6.796875 -7.738281 6.648438 -8.125 6.359375 -8.375 C 6.078125 -8.632812 5.65625 -8.765625 5.09375 -8.765625 L 2.609375 -8.765625 L 2.609375 -5.640625 Z M 5.34375 -0.9375 C 6.726562 -0.9375 7.421875 -1.5625 7.421875 -2.8125 C 7.421875 -4.0625 6.726562 -4.6875 5.34375 -4.6875 L 2.609375 -4.6875 L 2.609375 -0.9375 Z M 5.34375 -0.9375 "/></g></g></g></svg>