<svg xmlns="http://www.w3.org/2000/svg" xmlns:xlink="http://www.w3.org/1999/xlink" width="138" zoomAndPan="magnify" viewBox="0 0 103.5 30.000001" height="40" preserveAspectRatio="xMidYMid meet" version="1.0"><defs><g/><clipPath id="21916c3bf8"><path d="M 1.425781 2.878906 L 24.765625 2.878906 L 24.765625 26.21875 L 1.425781 26.21875 Z M 1.425781 2.878906 " clip-rule="nonzero"/></clipPath></defs><g clip-path="url(#21916c3bf8)"><path fill="#0277b5" d="M 22.816406 2.878906 L 3.390625 2.878906 C 2.316406 2.878906 1.449219 3.757812 1.449219 4.820312 L 1.449219 24.28125 C 1.449219 25.355469 2.328125 26.21875 3.390625 26.21875 L 22.804688 26.21875 C 23.878906 26.21875 24.742188 25.34375 24.742188 24.28125 L 24.742188 4.820312 C 24.753906 3.757812 23.890625 2.878906 22.816406 2.878906 Z M 8.351562 22.132812 L 4.90625 22.132812 L 4.90625 11.789062 L 8.351562 11.789062 Z M 6.621094 10.539062 C 5.535156 10.539062 4.660156 9.664062 4.660156 8.578125 C 4.660156 7.492188 5.535156 6.617188 6.621094 6.617188 C 7.707031 6.617188 8.585938 7.492188 8.585938 8.578125 C 8.585938 9.664062 7.707031 10.539062 6.621094 10.539062 Z M 21.308594 22.132812 L 17.855469 22.132812 L 17.773438 15.992188 C 17.773438 15.992188 17.855469 14.355469 16.066406 14.367188 C 14.28125 14.378906 14.035156 15.992188 14.035156 15.992188 L 14.035156 22.132812 L 10.558594 22.132812 L 10.558594 11.789062 L 13.894531 11.789062 L 13.894531 13.214844 C 13.894531 13.214844 14.035156 12.746094 14.808594 12.199219 C 15.578125 11.648438 16.851562 11.53125 17.398438 11.554688 C 17.949219 11.578125 18.695312 11.484375 19.945312 12.347656 C 21.285156 13.269531 21.320312 15.6875 21.320312 15.6875 Z M 21.308594 22.132812 " fill-opacity="1" fill-rule="nonzero"/></g><g fill="#0277b5" fill-opacity="1"><g transform="translate(29.682588, 18.9439)"><g><path d="M 2.609375 -9.71875 L 2.609375 -0.9375 L 7.296875 -0.9375 L 7.296875 0 L 1.46875 0 L 1.46875 -9.71875 Z M 2.609375 -9.71875 "/></g></g></g><g fill="#0277b5" fill-opacity="1"><g transform="translate(37.382603, 18.9439)"><g><path d="M 2.609375 0 L 1.46875 0 L 1.46875 -9.71875 L 2.609375 -9.71875 Z M 2.609375 0 "/></g></g></g><g fill="#0277b5" fill-opacity="1"><g transform="translate(41.468462, 18.9439)"><g><path d="M 2.578125 0 L 1.46875 0 L 1.46875 -9.71875 L 2.875 -9.71875 L 7.609375 -2.296875 L 7.78125 -2.3125 L 7.78125 -9.71875 L 8.890625 -9.71875 L 8.890625 0 L 7.6875 0 L 2.75 -7.9375 L 2.578125 -7.921875 Z M 2.578125 0 "/></g></g></g><g fill="#0277b5" fill-opacity="1"><g transform="translate(51.825946, 18.9439)"><g><path d="M 1.46875 0 L 1.46875 -9.71875 L 2.609375 -9.71875 L 2.609375 -5.46875 L 2.8125 -5.46875 L 6.8125 -9.71875 L 8.046875 -9.71875 L 8.046875 -9.546875 L 3.84375 -5.015625 L 8.390625 -0.171875 L 8.390625 0 L 7.078125 0 L 2.8125 -4.46875 L 2.609375 -4.46875 L 2.609375 0 Z M 1.46875 0 "/></g></g></g><g fill="#0277b5" fill-opacity="1"><g transform="translate(60.396283, 18.9439)"><g><path d="M 2.609375 -4.578125 L 2.609375 -0.9375 L 7.5625 -0.9375 L 7.5625 0 L 1.46875 0 L 1.46875 -9.71875 L 7.453125 -9.71875 L 7.453125 -8.765625 L 2.609375 -8.765625 L 2.609375 -5.515625 L 6.890625 -5.515625 L 6.890625 -4.578125 Z M 2.609375 -4.578125 "/></g></g></g><g fill="#0277b5" fill-opacity="1"><g transform="translate(68.601218, 18.9439)"><g><path d="M 4.609375 -9.71875 C 5.597656 -9.71875 6.441406 -9.539062 7.140625 -9.1875 C 7.847656 -8.832031 8.394531 -8.296875 8.78125 -7.578125 C 9.164062 -6.859375 9.359375 -5.953125 9.359375 -4.859375 C 9.359375 -3.765625 9.164062 -2.859375 8.78125 -2.140625 C 8.394531 -1.421875 7.847656 -0.882812 7.140625 -0.53125 C 6.441406 -0.175781 5.597656 0 4.609375 0 L 1.46875 0 L 1.46875 -9.71875 Z M 4.5 -0.96875 C 5.3125 -0.96875 5.984375 -1.09375 6.515625 -1.34375 C 7.046875 -1.601562 7.445312 -2.015625 7.71875 -2.578125 C 8 -3.148438 8.140625 -3.910156 8.140625 -4.859375 C 8.140625 -5.804688 8 -6.5625 7.71875 -7.125 C 7.445312 -7.695312 7.046875 -8.109375 6.515625 -8.359375 C 5.984375 -8.617188 5.3125 -8.75 4.5 -8.75 L 2.609375 -8.75 L 2.609375 -0.96875 Z M 4.5 -0.96875 "/></g></g></g><g fill="#0277b5" fill-opacity="1"><g transform="translate(78.925484, 18.9439)"><g><path d="M 2.609375 0 L 1.46875 0 L 1.46875 -9.71875 L 2.609375 -9.71875 Z M 2.609375 0 "/></g></g></g><g fill="#0277b5" fill-opacity="1"><g transform="translate(83.011342, 18.9439)"><g><path d="M 2.578125 0 L 1.46875 0 L 1.46875 -9.71875 L 2.875 -9.71875 L 7.609375 -2.296875 L 7.78125 -2.3125 L 7.78125 -9.71875 L 8.890625 -9.71875 L 8.890625 0 L 7.6875 0 L 2.75 -7.9375 L 2.578125 -7.921875 Z M 2.578125 0 "/></g></g></g></svg>