<svg xmlns="http://www.w3.org/2000/svg" xmlns:xlink="http://www.w3.org/1999/xlink" width="139" zoomAndPan="magnify" viewBox="0 0 104.25 30.000001" height="40" preserveAspectRatio="xMidYMid meet" version="1.0"><defs><g/></defs><g fill="#efc75e" fill-opacity="1"><g transform="translate(2.939415, 23.885183)"><g><path d="M 15.175781 -19.585938 L 1.203125 -19.585938 L 0 -15.261719 L 0.257812 -15.261719 C 1.144531 -17.464844 3.867188 -19.070312 6.183594 -19.070312 L 11.652344 -19.070312 L -0.171875 -0.257812 L -0.171875 0 L 15.003906 0 L 16.664062 -5.152344 L 16.40625 -5.152344 C 15.347656 -2.519531 12.226562 -0.515625 9.421875 -0.515625 L 3.207031 -0.515625 Z M 15.175781 -19.585938 "/></g></g></g><g fill="#ff914d" fill-opacity="1"><g transform="translate(2.834236, 23.885183)"><g><path d="M 9.621094 -4.039062 L 9.621094 -19.070312 L 10.335938 -19.070312 C 12.65625 -19.070312 15.375 -17.464844 16.261719 -15.261719 L 16.519531 -15.261719 L 15.320312 -19.585938 L 1.175781 -19.585938 L 0 -15.261719 L 0.257812 -15.261719 C 1.117188 -17.464844 3.867188 -19.070312 6.15625 -19.070312 L 6.902344 -19.070312 L 6.902344 -4.039062 C 6.902344 -1.003906 6.300781 -0.199219 5.066406 -0.257812 L 5.066406 0 L 11.453125 0 L 11.453125 -0.257812 C 10.222656 -0.199219 9.621094 -1.003906 9.621094 -4.039062 Z M 9.621094 -4.039062 "/></g></g></g><g fill="#ffffff" fill-opacity="1"><g transform="translate(13.45476, 16.45164)"><g><path d="M 4.714844 -1.089844 C 4.714844 -0.269531 4.550781 -0.0546875 4.21875 -0.0703125 L 4.21875 0 L 5.945312 0 L 5.945312 -0.0703125 C 5.613281 -0.0546875 5.449219 -0.269531 5.449219 -1.089844 L 5.449219 -4.195312 C 5.449219 -5.015625 5.613281 -5.242188 5.945312 -5.226562 L 5.945312 -5.296875 L 4.714844 -5.296875 L 2.925781 -0.195312 L 1.152344 -5.296875 L 0 -5.296875 L 0 -5.226562 C 0.332031 -5.242188 0.496094 -5.015625 0.496094 -4.195312 L 0.496094 -1.089844 C 0.496094 -0.269531 0.332031 -0.0546875 0 -0.0703125 L 0 0 L 1.128906 0 L 1.128906 -0.0703125 C 0.796875 -0.0546875 0.636719 -0.269531 0.636719 -1.089844 L 0.636719 -4.535156 L 2.214844 0 L 3.003906 0 L 4.714844 -4.878906 Z M 4.714844 -1.089844 "/></g></g></g><g fill="#ffffff" fill-opacity="1"><g transform="translate(19.625217, 16.45164)"><g><path d="M 0 0 L 2.011719 0 C 3.273438 0 4.550781 -0.410156 4.550781 -2.679688 C 4.550781 -4.953125 3.257812 -5.296875 2.011719 -5.296875 L 0 -5.296875 L 0 -5.226562 C 0.332031 -5.242188 0.496094 -5.015625 0.496094 -4.195312 L 0.496094 -1.089844 C 0.496094 -0.269531 0.332031 -0.0546875 0 -0.0703125 Z M 1.230469 -5.15625 L 2.230469 -5.15625 C 3.273438 -5.15625 3.816406 -4.140625 3.816406 -2.679688 C 3.816406 -1.214844 3.296875 -0.140625 2.230469 -0.140625 L 1.230469 -0.140625 Z M 1.230469 -5.15625 "/></g></g></g><g fill="#ffffff" fill-opacity="1"><g transform="translate(24.417578, 16.45164)"><g/></g></g><g fill="#ffffff" fill-opacity="1"><g transform="translate(26.686011, 16.45164)"><g><path d="M 4.101562 -5.296875 L 0.324219 -5.296875 L 0 -4.125 L 0.0703125 -4.125 C 0.308594 -4.722656 1.046875 -5.15625 1.671875 -5.15625 L 3.152344 -5.15625 L -0.046875 -0.0703125 L -0.046875 0 L 4.058594 0 L 4.507812 -1.394531 L 4.4375 -1.394531 C 4.148438 -0.679688 3.304688 -0.140625 2.546875 -0.140625 L 0.867188 -0.140625 Z M 4.101562 -5.296875 "/></g></g></g><g fill="#ffffff" fill-opacity="1"><g transform="translate(31.400946, 16.45164)"><g><path d="M 4.589844 -5.296875 L 3.460938 -5.296875 L 3.460938 -5.226562 C 3.792969 -5.242188 3.957031 -5.015625 3.957031 -4.195312 L 3.957031 -2.332031 C 3.957031 -1.914062 3.925781 -1.507812 3.800781 -1.183594 C 3.601562 -0.605469 3.097656 -0.285156 2.484375 -0.277344 C 1.734375 -0.277344 1.363281 -0.78125 1.277344 -1.464844 C 1.230469 -1.882812 1.230469 -2.269531 1.230469 -2.6875 L 1.230469 -4.195312 C 1.230469 -5.015625 1.394531 -5.242188 1.726562 -5.226562 L 1.726562 -5.296875 L 0 -5.296875 L 0 -5.226562 C 0.332031 -5.242188 0.496094 -5.015625 0.496094 -4.195312 L 0.496094 -2.832031 C 0.496094 -2.421875 0.488281 -1.828125 0.550781 -1.402344 C 0.6875 -0.402344 1.371094 0 2.316406 0 C 3.226562 0 3.863281 -0.449219 4.027344 -1.355469 C 4.074219 -1.609375 4.09375 -1.921875 4.09375 -2.292969 L 4.09375 -4.195312 C 4.09375 -5.015625 4.257812 -5.242188 4.589844 -5.226562 Z M 4.589844 -5.296875 "/></g></g></g><g fill="#ffffff" fill-opacity="1"><g transform="translate(36.232016, 16.45164)"><g><path d="M 0 0 L 2.886719 0 C 3.753906 0 4.34375 -0.550781 4.34375 -1.425781 C 4.34375 -2.292969 3.753906 -2.847656 2.980469 -2.871094 C 3.625 -3.152344 4.273438 -3.523438 4.273438 -4.304688 C 4.273438 -5.0625 3.515625 -5.296875 2.886719 -5.296875 L 0 -5.296875 L 0 -5.226562 C 0.332031 -5.242188 0.496094 -5.015625 0.496094 -4.195312 L 0.496094 -1.089844 C 0.496094 -0.269531 0.332031 -0.0546875 0 -0.0703125 Z M 1.230469 -1.867188 C 1.457031 -2.136719 1.84375 -2.40625 2.175781 -2.523438 C 2.832031 -2.757812 3.445312 -2.414062 3.578125 -1.703125 C 3.714844 -1 3.320312 -0.140625 2.4375 -0.140625 L 1.230469 -0.140625 Z M 1.230469 -5.15625 L 2.308594 -5.15625 C 2.847656 -5.15625 3.53125 -4.992188 3.53125 -4.335938 C 3.53125 -3.800781 3.167969 -3.445312 2.765625 -3.152344 C 2.261719 -2.789062 1.632812 -2.476562 1.230469 -2.074219 Z M 1.230469 -5.15625 "/></g></g></g><g fill="#ffffff" fill-opacity="1"><g transform="translate(40.815339, 16.45164)"><g><path d="M 2.972656 -5.296875 L 2.191406 -5.296875 L 0.472656 -0.402344 C 0.394531 -0.1875 0.246094 -0.0546875 0 -0.0625 L 0 0 C 0.363281 0 0.929688 0 1.308594 0 L 1.308594 -0.0625 C 1.0625 -0.0546875 0.914062 -0.117188 0.835938 -0.339844 C 0.820312 -0.394531 0.796875 -0.457031 0.78125 -0.511719 C 0.734375 -0.644531 0.742188 -0.757812 0.78125 -0.890625 L 0.945312 -1.324219 C 1.113281 -1.8125 1.742188 -1.546875 2.042969 -1.441406 C 2.664062 -1.238281 3.105469 -1.355469 3.375 -1.929688 L 3.902344 -0.433594 C 3.988281 -0.171875 3.863281 -0.0546875 3.601562 -0.0625 L 3.601562 0 L 5.164062 0 L 5.164062 -0.0625 C 4.886719 -0.0546875 4.753906 -0.195312 4.675781 -0.433594 Z M 3.328125 -2.082031 C 3.042969 -1.773438 2.648438 -1.964844 2.292969 -2.082031 C 1.78125 -2.253906 1.394531 -2.199219 1.121094 -1.851562 L 2.269531 -5.09375 Z M 3.328125 -2.082031 "/></g></g></g><g fill="#ffffff" fill-opacity="1"><g transform="translate(46.211583, 16.45164)"><g><path d="M 1.363281 -4.847656 C 1.238281 -5.0625 1.292969 -5.234375 1.546875 -5.226562 L 1.546875 -5.296875 L 0 -5.296875 L 0 -5.226562 C 0.324219 -5.242188 0.449219 -4.984375 0.589844 -4.730469 L 1.789062 -2.554688 L 1.789062 -1.089844 C 1.789062 -0.269531 1.625 -0.0546875 1.292969 -0.0703125 L 1.292969 0 L 3.027344 0 L 3.027344 -0.0703125 C 2.6875 -0.0546875 2.523438 -0.269531 2.523438 -1.089844 L 2.523438 -3.027344 L 3.691406 -4.738281 C 3.847656 -4.960938 4.011719 -5.234375 4.320312 -5.226562 L 4.320312 -5.296875 L 3.003906 -5.296875 L 3.003906 -5.226562 C 3.242188 -5.234375 3.382812 -5.179688 3.460938 -4.953125 C 3.46875 -4.933594 3.476562 -4.910156 3.484375 -4.886719 C 3.523438 -4.792969 3.507812 -4.714844 3.453125 -4.636719 L 2.367188 -3.035156 Z M 1.363281 -4.847656 "/></g></g></g><g fill="#ffffff" fill-opacity="1"><g transform="translate(50.748449, 16.45164)"><g><path d="M 0 0 L 4.101562 0 L 4.542969 -1.394531 L 4.484375 -1.394531 C 4.195312 -0.679688 3.351562 -0.140625 2.59375 -0.140625 L 1.230469 -0.140625 L 1.230469 -2.253906 C 1.523438 -2.664062 1.933594 -2.453125 2.316406 -2.332031 C 2.996094 -2.097656 3.460938 -2.269531 3.722656 -3.035156 L 3.660156 -3.066406 C 3.367188 -2.617188 2.941406 -2.832031 2.5625 -2.964844 C 1.941406 -3.175781 1.503906 -3.058594 1.230469 -2.46875 L 1.230469 -5.15625 L 2.640625 -5.15625 C 3.265625 -5.15625 4.003906 -4.722656 4.242188 -4.125 L 4.3125 -4.125 L 3.988281 -5.296875 L 0 -5.296875 L 0 -5.226562 C 0.332031 -5.242188 0.496094 -5.015625 0.496094 -4.195312 L 0.496094 -1.089844 C 0.496094 -0.269531 0.332031 -0.0546875 0 -0.0703125 Z M 0 0 "/></g></g></g><g fill="#ffffff" fill-opacity="1"><g transform="translate(55.50984, 16.45164)"><g><path d="M 1.230469 -1.089844 L 1.230469 -2.113281 C 1.394531 -2.300781 1.71875 -2.570312 2.011719 -2.710938 C 2.484375 -2.933594 2.734375 -2.734375 2.894531 -2.269531 C 3.089844 -1.742188 3.234375 -0.992188 3.515625 -0.480469 C 3.660156 -0.203125 3.886719 0 4.265625 0 C 4.492188 0 4.714844 -0.09375 4.824219 -0.316406 L 4.769531 -0.363281 C 4.613281 -0.230469 4.4375 -0.332031 4.328125 -0.457031 C 4.050781 -0.757812 3.730469 -1.957031 3.585938 -2.390625 C 3.46875 -2.734375 3.21875 -2.957031 2.78125 -3.003906 C 3.507812 -3.257812 4.273438 -3.539062 4.273438 -4.304688 C 4.273438 -5.0625 3.515625 -5.296875 2.886719 -5.296875 L 0 -5.296875 L 0 -5.226562 C 0.332031 -5.242188 0.496094 -5.015625 0.496094 -4.195312 L 0.496094 -1.089844 C 0.496094 -0.269531 0.332031 -0.0546875 0 -0.0703125 L 0 0 L 1.726562 0 L 1.726562 -0.0703125 C 1.394531 -0.0546875 1.230469 -0.269531 1.230469 -1.089844 Z M 1.230469 -5.15625 L 2.308594 -5.15625 C 2.847656 -5.15625 3.539062 -5.023438 3.53125 -4.335938 C 3.53125 -3.640625 2.453125 -3.191406 1.949219 -2.855469 C 1.679688 -2.6875 1.433594 -2.515625 1.230469 -2.316406 Z M 1.230469 -5.15625 "/></g></g></g><g fill="#ffffff" fill-opacity="1"><g transform="translate(60.565434, 16.45164)"><g/></g></g><g fill="#ffffff" fill-opacity="1"><g transform="translate(62.833867, 16.45164)"><g><path d="M 2.601562 -1.089844 L 2.601562 -5.15625 L 2.792969 -5.15625 C 3.421875 -5.15625 4.15625 -4.722656 4.398438 -4.125 L 4.46875 -4.125 L 4.140625 -5.296875 L 0.316406 -5.296875 L 0 -4.125 L 0.0703125 -4.125 C 0.300781 -4.722656 1.046875 -5.15625 1.664062 -5.15625 L 1.867188 -5.15625 L 1.867188 -1.089844 C 1.867188 -0.269531 1.703125 -0.0546875 1.371094 -0.0703125 L 1.371094 0 L 3.097656 0 L 3.097656 -0.0703125 C 2.765625 -0.0546875 2.601562 -0.269531 2.601562 -1.089844 Z M 2.601562 -1.089844 "/></g></g></g><g fill="#ffffff" fill-opacity="1"><g transform="translate(67.525578, 16.45164)"><g><path d="M 2.972656 -5.296875 L 2.191406 -5.296875 L 0.472656 -0.402344 C 0.394531 -0.1875 0.246094 -0.0546875 0 -0.0625 L 0 0 C 0.363281 0 0.929688 0 1.308594 0 L 1.308594 -0.0625 C 1.0625 -0.0546875 0.914062 -0.117188 0.835938 -0.339844 C 0.820312 -0.394531 0.796875 -0.457031 0.78125 -0.511719 C 0.734375 -0.644531 0.742188 -0.757812 0.78125 -0.890625 L 0.945312 -1.324219 C 1.113281 -1.8125 1.742188 -1.546875 2.042969 -1.441406 C 2.664062 -1.238281 3.105469 -1.355469 3.375 -1.929688 L 3.902344 -0.433594 C 3.988281 -0.171875 3.863281 -0.0546875 3.601562 -0.0625 L 3.601562 0 L 5.164062 0 L 5.164062 -0.0625 C 4.886719 -0.0546875 4.753906 -0.195312 4.675781 -0.433594 Z M 3.328125 -2.082031 C 3.042969 -1.773438 2.648438 -1.964844 2.292969 -2.082031 C 1.78125 -2.253906 1.394531 -2.199219 1.121094 -1.851562 L 2.269531 -5.09375 Z M 3.328125 -2.082031 "/></g></g></g><g fill="#ffffff" fill-opacity="1"><g transform="translate(72.921822, 16.45164)"><g><path d="M 1.230469 -4.195312 C 1.230469 -5.015625 1.394531 -5.242188 1.726562 -5.226562 L 1.726562 -5.296875 L 0 -5.296875 L 0 -5.226562 C 0.332031 -5.242188 0.496094 -5.015625 0.496094 -4.195312 L 0.496094 -1.089844 C 0.496094 -0.269531 0.332031 -0.0546875 0 -0.0703125 L 0 0 L 4.035156 0 L 4.484375 -1.394531 L 4.414062 -1.394531 C 4.125 -0.679688 3.28125 -0.140625 2.523438 -0.140625 L 1.230469 -0.140625 Z M 1.230469 -4.195312 "/></g></g></g><g fill="#ffffff" fill-opacity="1"><g transform="translate(77.636756, 16.45164)"><g><path d="M 4.589844 -5.296875 L 3.460938 -5.296875 L 3.460938 -5.226562 C 3.792969 -5.242188 3.957031 -5.015625 3.957031 -4.195312 L 3.957031 -2.332031 C 3.957031 -1.914062 3.925781 -1.507812 3.800781 -1.183594 C 3.601562 -0.605469 3.097656 -0.285156 2.484375 -0.277344 C 1.734375 -0.277344 1.363281 -0.78125 1.277344 -1.464844 C 1.230469 -1.882812 1.230469 -2.269531 1.230469 -2.6875 L 1.230469 -4.195312 C 1.230469 -5.015625 1.394531 -5.242188 1.726562 -5.226562 L 1.726562 -5.296875 L 0 -5.296875 L 0 -5.226562 C 0.332031 -5.242188 0.496094 -5.015625 0.496094 -4.195312 L 0.496094 -2.832031 C 0.496094 -2.421875 0.488281 -1.828125 0.550781 -1.402344 C 0.6875 -0.402344 1.371094 0 2.316406 0 C 3.226562 0 3.863281 -0.449219 4.027344 -1.355469 C 4.074219 -1.609375 4.09375 -1.921875 4.09375 -2.292969 L 4.09375 -4.195312 C 4.09375 -5.015625 4.257812 -5.242188 4.589844 -5.226562 Z M 4.589844 -5.296875 "/></g></g></g><g fill="#ffffff" fill-opacity="1"><g transform="translate(82.467826, 16.45164)"><g><path d="M 4.824219 -0.316406 L 4.769531 -0.363281 C 4.613281 -0.230469 4.4375 -0.332031 4.328125 -0.457031 C 4.050781 -0.757812 3.730469 -1.957031 3.585938 -2.390625 C 3.445312 -2.800781 3.199219 -3.160156 2.664062 -3.160156 C 2.5 -3.160156 2.355469 -3.121094 2.214844 -3.066406 L 3.660156 -4.613281 C 3.785156 -4.738281 3.910156 -4.863281 4.035156 -4.984375 C 4.179688 -5.132812 4.257812 -5.234375 4.5 -5.226562 L 4.5 -5.296875 L 3.207031 -5.296875 L 3.207031 -5.226562 C 3.414062 -5.234375 3.523438 -5.234375 3.609375 -5.070312 C 3.617188 -5.0625 3.625 -5.039062 3.632812 -5.015625 C 3.691406 -4.878906 3.625 -4.785156 3.53125 -4.683594 L 1.828125 -2.863281 C 1.609375 -2.640625 1.425781 -2.445312 1.230469 -2.191406 L 1.230469 -4.195312 C 1.230469 -5.015625 1.394531 -5.242188 1.726562 -5.226562 L 1.726562 -5.296875 L 0 -5.296875 L 0 -5.226562 C 0.332031 -5.242188 0.496094 -5.015625 0.496094 -4.195312 L 0.496094 -1.089844 C 0.496094 -0.269531 0.332031 -0.0546875 0 -0.0703125 L 0 0 L 1.726562 0 L 1.726562 -0.0703125 C 1.394531 -0.0546875 1.230469 -0.269531 1.230469 -1.089844 L 1.230469 -1.941406 C 1.339844 -2.097656 1.480469 -2.277344 1.632812 -2.429688 C 2.167969 -2.949219 2.648438 -2.964844 2.894531 -2.269531 C 3.089844 -1.742188 3.234375 -0.992188 3.515625 -0.480469 C 3.660156 -0.203125 3.886719 0 4.265625 0 C 4.492188 0 4.714844 -0.09375 4.824219 -0.316406 Z M 4.824219 -0.316406 "/></g></g></g><g fill="#ffffff" fill-opacity="1"><g transform="translate(87.52342, 16.45164)"><g><path d="M 0 0 L 2.011719 0 C 3.273438 0 4.550781 -0.410156 4.550781 -2.679688 C 4.550781 -4.953125 3.257812 -5.296875 2.011719 -5.296875 L 0 -5.296875 L 0 -5.226562 C 0.332031 -5.242188 0.496094 -5.015625 0.496094 -4.195312 L 0.496094 -1.089844 C 0.496094 -0.269531 0.332031 -0.0546875 0 -0.0703125 Z M 1.230469 -5.15625 L 2.230469 -5.15625 C 3.273438 -5.15625 3.816406 -4.140625 3.816406 -2.679688 C 3.816406 -1.214844 3.296875 -0.140625 2.230469 -0.140625 L 1.230469 -0.140625 Z M 1.230469 -5.15625 "/></g></g></g><g fill="#ffffff" fill-opacity="1"><g transform="translate(92.315782, 16.45164)"><g><path d="M 0 0 L 4.101562 0 L 4.542969 -1.394531 L 4.484375 -1.394531 C 4.195312 -0.679688 3.351562 -0.140625 2.59375 -0.140625 L 1.230469 -0.140625 L 1.230469 -2.253906 C 1.523438 -2.664062 1.933594 -2.453125 2.316406 -2.332031 C 2.996094 -2.097656 3.460938 -2.269531 3.722656 -3.035156 L 3.660156 -3.066406 C 3.367188 -2.617188 2.941406 -2.832031 2.5625 -2.964844 C 1.941406 -3.175781 1.503906 -3.058594 1.230469 -2.46875 L 1.230469 -5.15625 L 2.640625 -5.15625 C 3.265625 -5.15625 4.003906 -4.722656 4.242188 -4.125 L 4.3125 -4.125 L 3.988281 -5.296875 L 0 -5.296875 L 0 -5.226562 C 0.332031 -5.242188 0.496094 -5.015625 0.496094 -4.195312 L 0.496094 -1.089844 C 0.496094 -0.269531 0.332031 -0.0546875 0 -0.0703125 Z M 0 0 "/></g></g></g><g fill="#ffffff" fill-opacity="1"><g transform="translate(97.077172, 16.45164)"><g><path d="M 1.230469 -1.089844 L 1.230469 -2.113281 C 1.394531 -2.300781 1.71875 -2.570312 2.011719 -2.710938 C 2.484375 -2.933594 2.734375 -2.734375 2.894531 -2.269531 C 3.089844 -1.742188 3.234375 -0.992188 3.515625 -0.480469 C 3.660156 -0.203125 3.886719 0 4.265625 0 C 4.492188 0 4.714844 -0.09375 4.824219 -0.316406 L 4.769531 -0.363281 C 4.613281 -0.230469 4.4375 -0.332031 4.328125 -0.457031 C 4.050781 -0.757812 3.730469 -1.957031 3.585938 -2.390625 C 3.46875 -2.734375 3.21875 -2.957031 2.78125 -3.003906 C 3.507812 -3.257812 4.273438 -3.539062 4.273438 -4.304688 C 4.273438 -5.0625 3.515625 -5.296875 2.886719 -5.296875 L 0 -5.296875 L 0 -5.226562 C 0.332031 -5.242188 0.496094 -5.015625 0.496094 -4.195312 L 0.496094 -1.089844 C 0.496094 -0.269531 0.332031 -0.0546875 0 -0.0703125 L 0 0 L 1.726562 0 L 1.726562 -0.0703125 C 1.394531 -0.0546875 1.230469 -0.269531 1.230469 -1.089844 Z M 1.230469 -5.15625 L 2.308594 -5.15625 C 2.847656 -5.15625 3.539062 -5.023438 3.53125 -4.335938 C 3.53125 -3.640625 2.453125 -3.191406 1.949219 -2.855469 C 1.679688 -2.6875 1.433594 -2.515625 1.230469 -2.316406 Z M 1.230469 -5.15625 "/></g></g></g></svg>